<svg width="318" height="337" viewBox="0 0 318 337" fill="none" xmlns="http://www.w3.org/2000/svg">
<g clip-path="url(#clip0_1_2)">
<g clip-path="url(#clip1_1_2)">
<rect x="116" y="51" width="89" height="238" fill="#FFE66D"/>
<rect x="116" y="51" width="6.1962" height="238" fill="#1A888E"/>
<rect x="122.196" y="51" width="3.94304" height="238" fill="#4ECDC4"/>
</g>
<g clip-path="url(#clip2_1_2)">
<g clip-path="url(#clip3_1_2)">
<path d="M105 291C105 289.895 105.895 289 107 289H316C317.105 289 318 289.895 318 291V304H105V291Z" fill="#123D44"/>
<path d="M110.49 293H312.706C313.811 293 314.706 293.895 314.706 295V304H110.49V293Z" fill="#15454C"/>
</g>
<path opacity="0.163383" fill-rule="evenodd" clip-rule="evenodd" d="M176.158 50.9803L0 0.868256V336.531L176.158 275.339V50.9803Z" fill="url(#paint0_linear_1_2)"/>
<g clip-path="url(#clip4_1_2)">
<path fill-rule="evenodd" clip-rule="evenodd" d="M141.038 117.987C142.395 116.143 150.576 112.242 141.449 104.731C138.174 102.037 136.355 107.889 136.355 107.889C136.355 107.889 121.968 99.5793 124.664 109.705C114.577 109.192 108.311 112.773 106.752 117.347C105.773 106.076 101.102 117.645 102.692 118.218C96.1906 116.822 97.7076 123.456 101.461 124.588C101.052 129.243 103.629 141.187 111.21 142.226C124.097 143.991 138.79 141.593 142.395 130.195C142.723 128.265 144.449 122.339 141.038 117.987Z" fill="#37474F"/>
<path fill-rule="evenodd" clip-rule="evenodd" d="M118.699 149.451C120.559 152.512 120.882 155.834 127.985 155.834C135.089 155.834 142.058 153.363 143.982 148.882C145.906 144.4 140.601 123.032 139.952 122.348C139.303 121.665 129.757 121.654 128.086 119.786C126.415 117.918 128.749 122.244 129.864 123.175C130.978 124.107 124.396 123.929 121.339 122.047C118.281 120.165 123.312 125.049 122.326 125.049C121.339 125.049 116.092 122.772 117.395 124.138C118.699 125.504 119.331 140.701 118.263 141.216C117.195 141.731 110.541 136.463 109.894 142.17C109.247 147.877 114.964 152.145 118.699 149.451Z" fill="#FFDBB7"/>
<ellipse cx="128.924" cy="132.156" rx="1.24072" ry="1.93519" transform="rotate(-9 128.924 132.156)" fill="#1C0C00"/>
<ellipse cx="139.168" cy="130.226" rx="1.12981" ry="1.79808" transform="rotate(-9 139.168 130.226)" fill="#24110A"/>
<path fill-rule="evenodd" clip-rule="evenodd" d="M124.984 128.164C126.054 127.208 127.023 126.201 130.102 126.318C130.102 126.318 126.162 124 124.984 128.164Z" fill="#614321"/>
<path fill-rule="evenodd" clip-rule="evenodd" d="M135.28 125.766C136.436 125.217 137.52 124.597 140.089 125.493C140.089 125.493 137.374 122.475 135.28 125.766Z" fill="#633F1B"/>
<path fill-rule="evenodd" clip-rule="evenodd" d="M137.221 128.749C137.221 128.749 136.082 131.106 136.464 133.227C138.782 131.873 143.164 134.496 137.773 136.744C141.905 132.893 136.153 133.447 135.813 134.496C135.163 130.808 137.221 128.749 137.221 128.749Z" fill="#CA9866"/>
<path fill-rule="evenodd" clip-rule="evenodd" d="M131.019 164.42C131.019 164.42 129.014 158.365 127.891 155.242C129.014 154.957 131.019 154.843 132.602 154.52C133.597 158.581 136.122 163.192 136.122 163.192L131.019 164.42Z" fill="#FFDBB7"/>
<g clip-path="url(#clip5_1_2)">
<path fill-rule="evenodd" clip-rule="evenodd" d="M121.867 143.258C121.867 143.258 137.461 138.522 139.947 139.528C141.764 144.199 134.709 164.871 121.867 143.258Z" fill="#763428"/>
<mask id="mask0_1_2" style="mask-type:alpha" maskUnits="userSpaceOnUse" x="121" y="139" width="20" height="14">
<path fill-rule="evenodd" clip-rule="evenodd" d="M121.867 143.258C121.867 143.258 137.461 138.522 139.947 139.528C141.764 144.199 134.709 164.871 121.867 143.258Z" fill="white"/>
</mask>
<g mask="url(#mask0_1_2)">
<path fill-rule="evenodd" clip-rule="evenodd" d="M122.972 148.392C122.972 148.392 131.853 145.544 137.699 151.794C143.545 158.044 128.097 154.457 128.097 154.457L122.972 148.392Z" fill="#D69486"/>
</g>
</g>
</g>
<g clip-path="url(#clip6_1_2)">
<path fill-rule="evenodd" clip-rule="evenodd" d="M147.07 287.682C147.157 288.626 147.961 289.341 148.91 289.318L162.642 288.974C163.672 288.948 164.47 288.066 164.394 287.039L164.341 286.315C164.273 285.405 163.537 284.685 162.631 284.573C160.504 284.309 156.807 283.602 155.14 281.783C151.07 282.227 146.505 281.562 146.505 281.562L147.07 287.682Z" fill="#271B11"/>
<path fill-rule="evenodd" clip-rule="evenodd" d="M138.078 281.489C138.078 281.489 136.508 286.156 137.24 288.516C142.122 291.027 150.4 290.987 153.529 290.869C154.236 290.843 154.776 290.258 154.776 289.551V287.935C154.776 287.38 154.439 286.881 153.934 286.651C152.501 285.999 149.537 284.506 147.412 282.46C142.734 282.46 138.078 281.489 138.078 281.489Z" fill="#392C19"/>
</g>
<g clip-path="url(#clip7_1_2)">
<path fill-rule="evenodd" clip-rule="evenodd" d="M135.495 214.97C138.291 232.935 138.253 262.002 137.616 282.948C144.837 283.865 149.076 282.043 149.076 282.043C149.076 282.043 150.519 282.948 155.507 282.635C161.545 254.951 162.385 227.743 162.385 209.342C152.457 210.049 144.032 210.781 135.495 214.97Z" fill="#1F4E56"/>
<path fill-rule="evenodd" clip-rule="evenodd" d="M155.834 213.303C154.972 214.348 152.785 216.236 152.604 222.461C152.091 240.053 149.424 276.572 149.885 275.647C151.979 268.068 152.038 239.727 154.435 218.563C154.435 216.58 155.834 213.303 155.834 213.303Z" fill="#252A2A"/>
</g>
<g clip-path="url(#clip8_1_2)">
<path fill-rule="evenodd" clip-rule="evenodd" d="M137.316 214.918C137.316 214.918 147.451 213.393 155.039 211.6C155.209 210.418 155.52 210.062 155.52 210.062L156.606 210.986L162.185 210.69L157.001 208.984L155.039 205.728L153.998 209.826L137.316 214.918Z" fill="#222828"/>
<g clip-path="url(#clip9_1_2)">
<path fill-rule="evenodd" clip-rule="evenodd" d="M125.048 160.636L115.992 163.06C115.907 163.083 115.84 163.12 115.781 163.186C114.606 164.525 100.816 180.413 98.557 191.771C97.1657 199.904 97.0873 208.451 122.371 201.546C116.632 198.832 117.544 198.328 116.379 195.892C91.2292 202.809 119.144 170.953 119.144 170.953C125.517 177.078 129.682 205.609 132.038 215.548C140.594 214.249 153.606 211.915 154.03 210.417C154.454 208.92 154.747 206.911 154.747 206.911C154.747 206.911 156.127 209.13 156.781 210.169C160.109 211.062 164.974 210.417 164.974 210.417C164.974 210.417 150.837 177.182 148.035 171.481C168.463 183.998 191.684 176.235 191.684 176.235V168.675C167.915 177.183 144.33 161.078 142.626 159.881C142.555 159.832 142.482 159.809 142.395 159.805L136.012 159.461L134.383 162.09L129.682 159.972L125.048 160.636Z" fill="#1F4E56"/>
<ellipse cx="149.519" cy="201.546" rx="1.35577" ry="1.34856" fill="#222828"/>
<ellipse cx="146.356" cy="193.005" rx="1.35577" ry="1.34856" fill="#222828"/>
<path fill-rule="evenodd" clip-rule="evenodd" d="M154.2 205.417L146.795 187.869C146.795 187.869 154.747 201.965 154.2 205.417Z" fill="#222828"/>
</g>
<path fill-rule="evenodd" clip-rule="evenodd" d="M145.894 185.084L124.857 162.725L131.828 160.182L134.175 161.975L134.784 159.998L138.692 160.188L145.894 185.084Z" fill="#E4E4E5"/>
<path fill-rule="evenodd" clip-rule="evenodd" d="M136.895 174.247L135.064 166.01C135.064 166.01 133.61 164.934 132.598 163.97C133.61 162.686 135.891 162.233 135.891 162.233L136.669 165.138L141.82 171.518L145.879 185.086L136.895 174.247Z" fill="#062429"/>
<path fill-rule="evenodd" clip-rule="evenodd" d="M146.114 185.617C139.891 182.34 133.765 181.162 129.438 179.654C128.606 177.065 130.041 171.015 130.041 171.015C130.041 171.015 124.496 170.12 121.908 168.75C121.908 165.856 123.509 161.427 123.836 161.246C132.742 169.275 142.444 179.997 146.114 185.617ZM146.114 185.617C146.319 182.243 148.716 173.654 148.716 173.654C148.716 173.654 146.004 169.884 142.992 167.42C143.507 165.93 144.026 164.535 144.026 163.12C141.981 161.504 140.028 160.743 138.298 159.834C140.028 167.42 144.303 180.395 146.114 185.617Z" fill="#2D646D"/>
<path fill-rule="evenodd" clip-rule="evenodd" d="M125.43 163.198C125.336 163.174 125.268 163.092 125.262 162.995L125.023 159.254C125.014 159.112 125.138 158.997 125.28 159.017L131.978 159.978C132.089 159.994 132.171 160.089 132.171 160.201V164.666C132.171 164.813 132.032 164.921 131.889 164.884L125.43 163.198Z" fill="#FCFCFE"/>
<path fill-rule="evenodd" clip-rule="evenodd" d="M137.911 163.072C137.876 163.25 137.656 163.316 137.529 163.186L134.14 159.724C134.057 159.64 134.054 159.505 134.132 159.417L136.044 157.269C136.127 157.176 136.27 157.168 136.362 157.251L138.554 159.208C138.613 159.261 138.64 159.341 138.625 159.419L137.911 163.072Z" fill="#FFFDFF"/>
</g>
<g clip-path="url(#clip10_1_2)">
<path fill-rule="evenodd" clip-rule="evenodd" d="M115.853 195.686C120.351 206.611 129.871 198.766 135.835 196.14C135.958 196.086 136.074 196.011 136.121 195.885C136.421 195.09 135.619 193.046 133.484 193.216C131.082 193.031 129.295 196.357 127.849 195.458C126.478 194.292 128.877 189.591 128.608 187.724C128.608 186.416 127.242 186.365 126.671 186.843C125.209 187.724 124.907 191.777 123.981 191.596C123.303 191.48 123.183 188.825 123.614 186.162C123.614 185.258 121.962 184.051 120.95 185.855C119.503 188.324 120.457 193.216 119.57 193.124C117.755 193.124 118.443 190.264 118.443 188.338C118.225 187.189 116.193 187.042 115.622 188.338C114.711 191.325 114.906 193.58 115.853 195.686Z" fill="#FDDCB5"/>
<path fill-rule="evenodd" clip-rule="evenodd" d="M121.95 195.923C121.95 195.923 125.076 196.241 125.379 198.336C125.379 198.483 126.376 194.928 121.95 195.923Z" fill="#C79D73"/>
</g>
</g>
<g clip-path="url(#clip11_1_2)">
<rect x="176" y="40" width="134.321" height="249" fill="#1A717A"/>
<rect x="176" y="40" width="9.5144" height="248.437" fill="#1A888E"/>
<rect x="176" y="40" width="2.23868" height="248.437" fill="#4ECDC4"/>
<g clip-path="url(#clip12_1_2)">
<rect x="306.403" y="220.835" width="5.03704" height="9.57692" fill="#1A535C"/>
<path fill-rule="evenodd" clip-rule="evenodd" d="M312 229.902V232.947C312 234.658 310.618 236.045 308.922 236.045C307.222 236.045 305.844 234.654 305.844 232.943V229.913" fill="#1A888E"/>
<path fill-rule="evenodd" clip-rule="evenodd" d="M305.844 221.991V219.425C305.844 217.714 307.225 216.328 308.922 216.328C310.622 216.328 312 217.72 312 219.424V221.961" fill="#1A888E"/>
<rect x="305.844" y="223.652" width="6.15638" height="4.50679" fill="#1A888E"/>
</g>
<g clip-path="url(#clip13_1_2)">
<rect x="306.403" y="101.405" width="5.03704" height="9.57692" fill="#1A535C"/>
<path fill-rule="evenodd" clip-rule="evenodd" d="M312 110.472V113.517C312 115.228 310.618 116.615 308.922 116.615C307.222 116.615 305.844 115.224 305.844 113.513V110.483" fill="#1A888E"/>
<path fill-rule="evenodd" clip-rule="evenodd" d="M305.844 102.561V99.9949C305.844 98.2846 307.225 96.8982 308.922 96.8982C310.622 96.8982 312 98.2905 312 99.9946V102.531" fill="#1A888E"/>
<rect x="305.844" y="104.222" width="6.15638" height="4.50679" fill="#1A888E"/>
</g>
<g clip-path="url(#clip14_1_2)">
<g clip-path="url(#clip15_1_2)">
<rect x="205.103" y="70.4208" width="34.6996" height="69.8552" fill="#1A888E"/>
<rect x="235.885" y="70.4208" width="3.9177" height="69.8552" fill="#1A535C"/>
</g>
<g clip-path="url(#clip16_1_2)">
<rect x="254.914" y="70.4208" width="34.6996" height="69.8552" fill="#1A888E"/>
<rect x="285.695" y="70.4208" width="3.9177" height="69.8552" fill="#1A535C"/>
</g>
<g clip-path="url(#clip17_1_2)">
<rect x="254.914" y="192.667" width="34.6996" height="69.8552" fill="#1A888E"/>
<rect x="285.695" y="192.667" width="3.9177" height="69.8552" fill="#1A535C"/>
</g>
<g clip-path="url(#clip18_1_2)">
<rect x="204.543" y="192.667" width="34.6996" height="69.8552" fill="#1A888E"/>
<rect x="235.325" y="192.667" width="3.9177" height="69.8552" fill="#1A535C"/>
</g>
</g>
<g clip-path="url(#clip19_1_2)">
<rect x="192.79" y="170.274" width="5.03704" height="3.61482" rx="1.80741" fill="#1A535C"/>
<ellipse cx="201.857" cy="171.824" rx="6.04444" ry="6.19683" fill="#1A888E"/>
<ellipse cx="203.872" cy="171.307" rx="2.01481" ry="2.06561" fill="#21AAAA"/>
</g>
</g>
</g>
<defs>
<linearGradient id="paint0_linear_1_2" x1="191.293" y1="-72.6158" x2="-41.3449" y2="-72.6158" gradientUnits="userSpaceOnUse">
<stop stop-color="#FFDE62"/>
<stop offset="1" stop-color="#5E908F"/>
</linearGradient>
<clipPath id="clip0_1_2">
<rect width="318" height="337" fill="white"/>
</clipPath>
<clipPath id="clip1_1_2">
<rect width="89" height="238" fill="white" transform="translate(116 51)"/>
</clipPath>
<clipPath id="clip2_1_2">
<rect width="318" height="337" fill="white"/>
</clipPath>
<clipPath id="clip3_1_2">
<rect width="213" height="15" fill="white" transform="translate(105 289)"/>
</clipPath>
<clipPath id="clip4_1_2">
<rect width="47.9038" height="60.6851" fill="white" transform="translate(98 104)"/>
</clipPath>
<clipPath id="clip5_1_2">
<rect width="18.9808" height="13.9351" fill="white" transform="translate(121.5 139.062)"/>
</clipPath>
<clipPath id="clip6_1_2">
<rect width="27.5673" height="9.88942" fill="white" transform="translate(136.865 281.111)"/>
</clipPath>
<clipPath id="clip7_1_2">
<rect width="28" height="75" fill="white" transform="translate(135.058 209.188)"/>
</clipPath>
<clipPath id="clip8_1_2">
<rect width="94" height="60" fill="white" transform="translate(98 157.043)"/>
</clipPath>
<clipPath id="clip9_1_2">
<rect width="94" height="57" fill="white" transform="translate(98 159.291)"/>
</clipPath>
<clipPath id="clip10_1_2">
<rect width="21.6923" height="16.6322" fill="white" transform="translate(114.721 184.913)"/>
</clipPath>
<clipPath id="clip11_1_2">
<rect width="136" height="249" fill="white" transform="translate(176 40)"/>
</clipPath>
<clipPath id="clip12_1_2">
<rect width="6.15638" height="19.7172" fill="white" transform="translate(305.844 216.328)"/>
</clipPath>
<clipPath id="clip13_1_2">
<rect width="6.15638" height="19.7172" fill="white" transform="translate(305.844 96.8982)"/>
</clipPath>
<clipPath id="clip14_1_2">
<rect width="85.07" height="192.102" fill="white" transform="translate(204.543 70.4208)"/>
</clipPath>
<clipPath id="clip15_1_2">
<rect width="34.6996" height="69.8552" fill="white" transform="translate(205.103 70.4208)"/>
</clipPath>
<clipPath id="clip16_1_2">
<rect width="34.6996" height="69.8552" fill="white" transform="translate(254.914 70.4208)"/>
</clipPath>
<clipPath id="clip17_1_2">
<rect width="34.6996" height="69.8552" fill="white" transform="translate(254.914 192.667)"/>
</clipPath>
<clipPath id="clip18_1_2">
<rect width="34.6996" height="69.8552" fill="white" transform="translate(204.543 192.667)"/>
</clipPath>
<clipPath id="clip19_1_2">
<rect width="15.1111" height="12.3937" fill="white" transform="translate(192.79 165.627)"/>
</clipPath>
</defs>
</svg>
